<svg xmlns="http://www.w3.org/2000/svg" width="1024" height="1024" viewBox="2.5 2 1024 1024">
  <defs><linearGradient id="_48jnq60" x1="342" x2="649" y1="265" y2="772" gradientUnits="userSpaceOnUse"><stop stop-color="#f6d8be" offset="0"/><stop stop-color="#f8d9bf" offset=".46"/><stop stop-color="#f2cfb2" offset="1"/></linearGradient><linearGradient id="_48jnq61" x1="367" x2="652" y1="241" y2="796" gradientUnits="userSpaceOnUse"><stop stop-color="#ed7c8d" offset="0"/><stop stop-color="#f18a98" offset=".48"/><stop stop-color="#ed7484" offset="1"/></linearGradient><linearGradient id="_48jnq62" x1="482" x2="510" y1="530" y2="804" gradientUnits="userSpaceOnUse"><stop stop-color="#d8767b" offset="0"/><stop stop-color="#d56771" offset="1"/></linearGradient><radialGradient id="_48jnq63" cx=".33" cy=".26" r=".82"><stop stop-color="#fff1df" stop-opacity=".23" offset="0"/><stop stop-color="#ffe8d2" stop-opacity="0" offset=".6"/><stop stop-color="#eebd99" stop-opacity=".17" offset="1"/></radialGradient><linearGradient id="_48jnq64" x1="752" x2="796" y1="439" y2="396" gradientUnits="userSpaceOnUse"><stop stop-color="#a86740" stop-opacity="0" offset="0"/><stop stop-color="#b37249" stop-opacity=".4" offset=".63"/><stop stop-color="#9e5c35" stop-opacity=".74" offset="1"/></linearGradient><linearGradient id="_48jnq65" x1="803" x2="762" y1="355" y2="406" gradientUnits="userSpaceOnUse"><stop stop-color="#ffe4cb" offset="0"/><stop stop-color="#f8d6b5" offset=".43"/><stop stop-color="#e8b78f" offset="1"/></linearGradient><linearGradient id="_48jnq66" x1="833" x2="863" y1="367" y2="473" gradientUnits="userSpaceOnUse"><stop stop-color="#fff0de" stop-opacity=".56" offset="0"/><stop stop-color="#fff0de" stop-opacity="0" offset="1"/></linearGradient><linearGradient id="_48jnq67" x1="469" x2="554" y1="347" y2="681" gradientUnits="userSpaceOnUse"><stop stop-color="#fce4cf" offset="0"/><stop stop-color="#f7d8bc" offset=".61"/><stop stop-color="#edc3a3" offset=".87"/><stop stop-color="#dfa983" offset="1"/></linearGradient><linearGradient id="_48jnq68" x1="376" x2="622" y1="369" y2="597" gradientUnits="userSpaceOnUse"><stop stop-color="#fbe2cd" offset="0"/><stop stop-color="#f8dcc4" offset=".46"/><stop stop-color="#f9dfc9" offset="1"/></linearGradient><linearGradient id="_48jnq69" x1="505" x2="493" y1="316" y2="484" gradientUnits="userSpaceOnUse"><stop stop-color="#fffaf3" offset="0"/><stop stop-color="#fff3e7" stop-opacity=".8" offset=".6"/><stop stop-color="#ffe9d5" stop-opacity="0" offset="1"/></linearGradient><linearGradient id="_48jnq610" x1="313" x2="348" y1="541" y2="507" gradientUnits="userSpaceOnUse"><stop stop-color="#c48a61" stop-opacity=".37" offset="0"/><stop stop-color="#e8bb98" stop-opacity="0" offset="1"/></linearGradient><radialGradient id="_48jnq611" rx=".5"><stop stop-color="#fff0df" stop-opacity=".9" offset="0"/><stop stop-color="#fff0df" stop-opacity="0" offset="1"/></radialGradient><filter id="_48jnq612" x="-25%" y="-30%" width="150%" height="170%" color-interpolation-filters="sRGB"><feGaussianBlur stdDeviation="16"/></filter><filter id="_48jnq613" x="-20%" y="-25%" width="140%" height="160%" color-interpolation-filters="sRGB"><feGaussianBlur stdDeviation="5"/></filter><filter id="_48jnq614" x="-25%" y="-25%" width="150%" height="165%" color-interpolation-filters="sRGB"><feGaussianBlur stdDeviation="12"/></filter><filter id="_48jnq615" x="-30%" y="-25%" width="160%" height="155%" color-interpolation-filters="sRGB"><feGaussianBlur stdDeviation="9"/></filter><filter id="_48jnq616" color-interpolation-filters="sRGB"><feGaussianBlur stdDeviation="6"/></filter><filter id="_48jnq617" x="-30%" y="-60%" width="160%" height="220%" color-interpolation-filters="sRGB"><feGaussianBlur stdDeviation="5"/></filter><path id="_48jnq618" d="m179 410 250-152c50-30 92-47 136-41 50 3 81 31 119 62 31 25 57 41 105 54 45 12 76 23 92 51 14 24 8 51 13 80 3 18 10 33 13 51 7 44-16 78-56 105l-232 143c-54 32-103 45-151 38-50-5-84-27-119-59l-191-180c-25-23-39-46-38-73 0-32 20-55 59-79z"/><clipPath id="_48jnq619"><use href="#_48jnq618"/></clipPath><path id="_48jnq620" d="m308 414 159-88c43-24 81-21 115-3 30 17 56 42 87 69l59 52c22 20 36 40 36 63 1 25-15 45-40 61l-164 96c-28 16-55 22-82 15-30-4-49-16-71-36l-122-113c-20-18-28-37-25-58 3-24 20-41 48-58z"/></defs>
  <g id="_48jnq621">
    <path d="m180 438 272-161c51-31 102-37 151-16l189 103c67 17 91 46 95 94l19 94c-1 37-31 65-67 88l-222 138c-68 46-140 59-202 29-28-12-52-31-73-51l-187-178c-36-34-33-68-16-99z" filter="url(#_48jnq612)" fill="#574137" style="opacity: 0.29" />
    <path d="m126 506c7 28 25 46 47 66l181 173c46 41 87 65 147 64 44 0 82-17 122-39l233-146c31-20 49-44 51-76-20 47-51 62-86 84l-211 131c-52 30-96 41-144 34-47-6-83-28-116-59l-190-179z" filter="url(#_48jnq613)" fill="#784A39" style="opacity: 0.27" />
  </g>
  <g id="_48jnq622">
    <use transform="translate(0 3)" href="#_48jnq618" fill="url(#_48jnq62)" />
    <use href="#_48jnq618" fill="url(#_48jnq61)" />
    <path id="_48jnq623" d="m183 415 249-152c49-29 90-47 133-41 48 3 78 30 116 61 33 27 62 43 108 56 43 11 73 23 87 48 12 22 8 49 13 78 3 20 11 36 13 52 7 40-16 72-55 98l-232 142c-52 31-101 44-146 38-48-5-81-27-115-58l-190-179c-24-22-38-43-37-69 0-29 19-51 56-74z" fill="url(#_48jnq60)" />
    <path d="m183 415 249-152c49-29 90-47 133-41 48 3 78 30 116 61 33 27 62 43 108 56 43 11 73 23 87 48 12 22 8 49 13 78 3 20 11 36 13 52 7 40-16 72-55 98l-232 142c-52 31-101 44-146 38-48-5-81-27-115-58l-190-179c-24-22-38-43-37-69 0-29 19-51 56-74z" fill="url(#_48jnq63)" />
    <g id="_48jnq624" clip-path="url(#_48jnq619)">
      <path d="m672 281c35 46 88 110 133 157l96 106 14-31c-55-59-98-116-149-162z" filter="url(#_48jnq615)" fill="url(#_48jnq64)" />
      <path d="m684 288 218 226-2 18c-43-47-82-85-120-128-41-45-73-83-96-116z" filter="url(#_48jnq613)" fill="#AA6B43" style="opacity: 0.14" />
    </g>
  </g>
  <g id="_48jnq625">
    <path d="m308 425 158-85c45-25 84-23 120-1l143 119c24 22 42 51 29 80-7 16-22 30-44 44l-154 91c-33 20-63 26-94 17-23-6-46-20-67-39l-122-112c-22-23-28-45-14-70 11-18 25-31 45-44z" filter="url(#_48jnq614)" fill="#AD6B43" style="opacity: 0.37" />
    <use transform="translate(0 2)" href="#_48jnq620" fill="#BD8059" style="opacity: 0.43" />
    <use href="#_48jnq620" fill="url(#_48jnq67)" />
    <path id="_48jnq626" d="m324 413 149-82c36-20 69-16 98 3 26 17 49 40 79 65l63 55c21 20 30 37 20 55-7 15-22 27-45 41l-140 82c-30 18-54 22-77 14-19-6-31-17-48-32l-115-107c-18-17-27-33-22-51 4-17 17-31 38-43z" filter="url(#_48jnq616)" fill="url(#_48jnq68)" />
    <path id="_48jnq627" d="m281 440c10-12 20-19 35-26l151-88c43-24 81-21 115-3 30 17 56 42 87 69l59 52c18 16 29 34 33 47-15-22-31-35-47-48l-57-46c-41-32-65-57-95-72-28-14-55-11-82 1-46 20-101 53-154 82-22 12-38 27-39 46-1 8 2 17 7 25-15-11-17-25-13-39z" fill="url(#_48jnq69)" />
    <path id="_48jnq628" d="m285 439c-21 26-15 49 9 73l132 123c20 18 40 31 68 38-33 0-56-11-85-36l-123-112c-21-20-32-48-16-72z" fill="url(#_48jnq610)" />
    <path id="_48jnq629" d="m684 418c23 19 46 38 53 58 5 14-2 25-12 37 7-18-6-37-17-51-9-12-22-23-34-33z" filter="url(#_48jnq617)" fill="#FFF0DF" style="opacity: 0.38" />
    <ellipse id="_48jnq630" transform="rotate(-10 501 636)" cx="501" cy="636" rx="56" ry="17" filter="url(#_48jnq617)" fill="url(#_48jnq611)" />
    <path d="m448 624c22 19 49 27 80 14" filter="url(#_48jnq617)" fill="none" stroke="#FFF0DF" stroke-width="7" style="opacity: 0.25" />
  </g>
  <g id="_48jnq631">
    <path id="_48jnq632" d="m683 282c32 25 61 41 106 53 41 11 73 23 88 49 14 24 8 50 13 79 3 20 10 38 13 50-27-31-60-64-93-99-46-48-89-95-127-132z" fill="url(#_48jnq65)" />
    <path d="m693 290c30 22 57 37 98 49 41 11 69 23 83 48 12 22 8 48 14 76-27-33-53-61-82-82-38-29-73-54-113-91z" fill="url(#_48jnq66)" />
    <path id="_48jnq633" d="m683 281c33 26 62 41 107 54 44 12 75 23 90 49 13 24 7 51 13 80 3 19 9 34 12 49" fill="none" stroke="#F08797" stroke-width="5.5" stroke-linecap="round" />
    <path d="m692 290c35 24 62 38 100 49 41 11 69 23 83 47 13 24 7 49 13 78" fill="none" stroke="#FFE9D6" stroke-width="2" style="opacity: 0.67" />
    <path id="_48jnq634" d="m687 286c41 41 79 84 121 128 34 36 66 67 93 97" fill="none" stroke="#F7D5B4" stroke-width="1.6" style="opacity: 0.65" />
  </g>
</svg>